<?xml version="1.0" encoding="utf-8"?>
<!-- Generator: Adobe Illustrator 24.2.1, SVG Export Plug-In . SVG Version: 6.00 Build 0)  -->
<svg version="1.1" id="圖層_1" xmlns="http://www.w3.org/2000/svg" xmlns:xlink="http://www.w3.org/1999/xlink" x="0px" y="0px"
	 viewBox="0 0 35 35" style="enable-background:new 0 0 35 35;" xml:space="preserve">
<path id="path" d="M31.4-0.1H3.7C1.6-0.1,0,1.6,0,3.7v27.5c0,2.2,1.6,3.8,3.7,3.8h27.5c2.1,0,3.7-1.6,3.7-3.7V3.7C35.1,1.6,33.5-0.1,31.4-0.1z
	 M28.9,19.7c0,0.5-0.4,1-1,1h-7.2v7.2c0,0.5-0.4,1-1,1h-4.4c-0.5,0-1-0.4-1-1v-7.2h-7c-0.5,0-1-0.4-1-1v-4.4c0-0.5,0.4-1,1-1h7.2
	V7.2c0-0.5,0.4-1,1-1h4.4c0.5,0,1,0.4,1,1v7.2h7.2c0.5,0,1,0.4,1,1v4.3H28.9z"/>
</svg>
