<?xml version="1.0" encoding="utf-8"?>
<!-- Generator: Adobe Illustrator 24.2.1, SVG Export Plug-In . SVG Version: 6.00 Build 0)  -->
<svg version="1.1" id="圖層_1" xmlns="http://www.w3.org/2000/svg" xmlns:xlink="http://www.w3.org/1999/xlink" x="0px" y="0px"
	 viewBox="0 0 32 32" style="enable-background:new 0 0 32 32;" xml:space="preserve">
<style type="text/css">
	.st0{fill:#89C800;}
</style>
<path id="path" class="st0" d="M1.1,7.1h29.7C31.5,7.1,32,6.6,32,6V3.1C32,2.5,31.5,2,30.9,2H1.1C0.5,2,0,2.5,0,3.1V6
	C0,6.6,0.5,7.1,1.1,7.1z M1.1,18.6h29.7c0.6,0,1.1-0.5,1.1-1.1v-2.9c0-0.6-0.5-1.1-1.1-1.1H1.1c-0.6,0-1.1,0.5-1.1,1.1v2.9
	C0,18.1,0.5,18.6,1.1,18.6z M1.1,30h29.7c0.6,0,1.1-0.5,1.1-1.1V26c0-0.6-0.5-1.1-1.1-1.1H1.1C0.5,24.9,0,25.4,0,26v2.9
	C0,29.5,0.5,30,1.1,30z"/>
</svg>
