<?xml version="1.0" encoding="utf-8"?>
<!-- Generator: Adobe Illustrator 24.2.1, SVG Export Plug-In . SVG Version: 6.00 Build 0)  -->
<svg version="1.1" id="圖層_1" xmlns="http://www.w3.org/2000/svg" xmlns:xlink="http://www.w3.org/1999/xlink" x="0px" y="0px"
	 viewBox="0 0 24 28" style="enable-background:new 0 0 24 28;" xml:space="preserve">
<path id="path" d="M1.7,25.1c0,1.5,1.1,2.6,2.6,2.6l0,0h15.4c1.5,0,2.6-1.1,2.6-2.6l0,0v-18H1.7V25.1z M16.3,11.4c0-0.5,0.3-0.9,0.9-0.9
	s0.9,0.3,0.9,0.9v12c0,0.5-0.3,0.9-0.9,0.9s-0.9-0.3-0.9-0.9V11.4z M11.1,11.4c0-0.5,0.3-0.9,0.9-0.9s0.9,0.3,0.9,0.9v12
	c0,0.5-0.3,0.9-0.9,0.9s-0.9-0.3-0.9-0.9V11.4z M6,11.4c0-0.5,0.3-0.9,0.9-0.9s0.9,0.3,0.9,0.9v12c0,0.5-0.3,0.9-0.9,0.9
	S6,23.9,6,23.4V11.4z M23.1,2h-6.4l-0.5-1c-0.2-0.4-0.7-0.7-1.1-0.7H9C8.5,0.3,8.1,0.5,7.9,1L7.3,2H0.9C0.3,2,0,2.3,0,2.9v1.7
	c0,0.5,0.3,0.9,0.9,0.9h22.3c0.5,0,0.9-0.3,0.9-0.9V2.9C24,2.3,23.7,2,23.1,2z"/>
</svg>
