<?xml version="1.0" encoding="utf-8"?>
<!-- Generator: Adobe Illustrator 24.2.1, SVG Export Plug-In . SVG Version: 6.00 Build 0)  -->
<svg version="1.1" id="圖層_1" xmlns="http://www.w3.org/2000/svg" xmlns:xlink="http://www.w3.org/1999/xlink" x="0px" y="0px"
	 viewBox="0 0 22 22" style="enable-background:new 0 0 22 22;" xml:space="preserve">
<path id="path" d="M19.7,0H2.3C1,0,0,1,0,2.3v17.3C0,21,1,22,2.3,22h17.3c1.3,0,2.3-1,2.3-2.3V2.3C22.1,1,21,0,19.7,0z M19.7,19.7H2.3V2.3
	h17.3L19.7,19.7L19.7,19.7z M17.9,7.8l-8.5,8.4c-0.2,0.2-0.6,0.2-0.8,0l-4.5-4.5c-0.2-0.2-0.2-0.6,0-0.8l1.1-1.1
	c0.2-0.2,0.6-0.2,0.8,0l3,3l7-6.9c0.2-0.2,0.6-0.2,0.8,0l1.1,1.1C18.1,7.1,18.1,7.6,17.9,7.8L17.9,7.8z"/>
</svg>
