<?xml version="1.0" encoding="utf-8"?>
<!-- Generator: Adobe Illustrator 24.2.1, SVG Export Plug-In . SVG Version: 6.00 Build 0)  -->
<svg version="1.1" id="圖層_1" xmlns="http://www.w3.org/2000/svg" xmlns:xlink="http://www.w3.org/1999/xlink" x="0px" y="0px"
	 viewBox="0 0 32 32" style="enable-background:new 0 0 32 32;" xml:space="preserve">
<path id="path" d="M31.6,17.1L20.9,27.7c-1,1-2.6,0.3-2.6-1.1v-6.1H9.7c-0.8,0-1.5-0.7-1.5-1.5V13c0-0.8,0.7-1.5,1.5-1.5h8.6V5.3
	c0-1.4,1.6-2,2.6-1.1l10.7,10.7C32.1,15.5,32.1,16.5,31.6,17.1z M12.2,27.4v-2.5c0-0.4-0.3-0.8-0.8-0.8H6.1c-1.1,0-2-0.9-2-2V9.9
	c0-1.1,0.9-2,2-2h5.3c0.4,0,0.8-0.3,0.8-0.8V4.6c0-0.4-0.3-0.8-0.8-0.8H6.1C2.7,3.8,0,6.5,0,9.9v12.2c0,3.4,2.7,6.1,6.1,6.1h5.3
	C11.8,28.2,12.2,27.8,12.2,27.4z"/>
</svg>
