<?xml version="1.0" encoding="utf-8"?>
<!-- Generator: Adobe Illustrator 24.2.1, SVG Export Plug-In . SVG Version: 6.00 Build 0)  -->
<svg version="1.1" id="圖層_1" xmlns="http://www.w3.org/2000/svg" xmlns:xlink="http://www.w3.org/1999/xlink" x="0px" y="0px"
	 viewBox="0 0 22 22" style="enable-background:new 0 0 22 22;" xml:space="preserve">
<path id="path" d="M19.7,0H2.3C1,0,0,1,0,2.3v17.3C0,21,1,22,2.3,22h17.3c1.3,0,2.3-1,2.3-2.3V2.3C22,1,21,0,19.7,0z M19.3,19.7H2.6
	c-0.1,0-0.3-0.1-0.3-0.3V2.7c0-0.1,0.1-0.3,0.3-0.3h16.8c0.1,0,0.3,0.1,0.3,0.3v16.8C19.7,19.6,19.5,19.7,19.3,19.7z"/>
</svg>
